<?xml version="1.0" encoding="UTF-8"?>
<svg xmlns="http://www.w3.org/2000/svg" xmlns:xlink="http://www.w3.org/1999/xlink" width="40px" height="40px" viewBox="0 0 40 40" version="1.1">
<g id="surface1">
<path style=" stroke:none;fill-rule:nonzero;fill:rgb(0%,77.254903%,35.294119%);fill-opacity:1;" d="M 6.824219 -0.109375 C 7.785156 -0.121094 7.785156 -0.121094 8.765625 -0.136719 C 9.460938 -0.140625 10.15625 -0.144531 10.871094 -0.148438 C 11.582031 -0.152344 12.296875 -0.160156 13.03125 -0.164062 C 14.539062 -0.171875 16.046875 -0.179688 17.558594 -0.183594 C 19.867188 -0.195312 22.175781 -0.222656 24.484375 -0.25 C 25.949219 -0.257812 27.414062 -0.261719 28.878906 -0.265625 C 29.570312 -0.277344 30.261719 -0.289062 30.972656 -0.300781 C 35.773438 -0.285156 35.773438 -0.285156 38.234375 1.1875 C 39.949219 3.160156 40.082031 4.261719 40.109375 6.824219 C 40.121094 7.785156 40.121094 7.785156 40.136719 8.765625 C 40.140625 9.460938 40.144531 10.15625 40.148438 10.871094 C 40.152344 11.582031 40.160156 12.296875 40.164062 13.03125 C 40.171875 14.539062 40.179688 16.046875 40.183594 17.558594 C 40.195312 19.867188 40.222656 22.175781 40.25 24.484375 C 40.257812 25.949219 40.261719 27.414062 40.265625 28.878906 C 40.277344 29.570312 40.289062 30.261719 40.300781 30.972656 C 40.285156 35.773438 40.285156 35.773438 38.8125 38.234375 C 36.839844 39.949219 35.738281 40.082031 33.175781 40.109375 C 32.214844 40.121094 32.214844 40.121094 31.234375 40.136719 C 30.191406 40.140625 30.191406 40.140625 29.128906 40.148438 C 28.417969 40.152344 27.703125 40.160156 26.96875 40.164062 C 25.460938 40.171875 23.953125 40.179688 22.441406 40.183594 C 20.132812 40.195312 17.824219 40.222656 15.515625 40.25 C 14.050781 40.257812 12.585938 40.261719 11.121094 40.265625 C 10.085938 40.28125 10.085938 40.28125 9.027344 40.300781 C 4.226562 40.285156 4.226562 40.285156 1.765625 38.8125 C 0.0507812 36.839844 -0.0820312 35.738281 -0.109375 33.175781 C -0.117188 32.535156 -0.125 31.894531 -0.136719 31.234375 C -0.140625 30.539062 -0.144531 29.84375 -0.148438 29.128906 C -0.152344 28.417969 -0.160156 27.703125 -0.164062 26.96875 C -0.171875 25.460938 -0.179688 23.953125 -0.183594 22.441406 C -0.195312 20.132812 -0.222656 17.824219 -0.25 15.515625 C -0.257812 14.050781 -0.261719 12.585938 -0.265625 11.121094 C -0.28125 10.085938 -0.28125 10.085938 -0.300781 9.027344 C -0.285156 4.226562 -0.285156 4.226562 1.1875 1.765625 C 3.160156 0.0507812 4.261719 -0.0820312 6.824219 -0.109375 Z M 15.625 5 C 16.207031 5.691406 16.792969 6.378906 17.375 7.066406 C 17.699219 7.449219 18.023438 7.832031 18.359375 8.226562 C 19.359375 9.382812 19.359375 9.382812 20.449219 10.425781 C 21.554688 11.515625 22.066406 12.25 22.5 13.75 C 21.964844 16.664062 20.660156 19.230469 19.375 21.875 C 18.882812 22.914062 18.394531 23.957031 17.902344 24.996094 C 17.140625 26.613281 16.375 28.226562 15.59375 29.828125 C 15.355469 30.320312 15.117188 30.8125 14.871094 31.316406 C 14.546875 31.976562 14.546875 31.976562 14.214844 32.648438 C 13.667969 33.742188 13.667969 33.742188 13.75 35 C 16.675781 35.015625 19.601562 35.027344 22.527344 35.035156 C 23.523438 35.039062 24.519531 35.042969 25.515625 35.046875 C 26.945312 35.054688 28.375 35.058594 29.800781 35.0625 C 30.25 35.0625 30.699219 35.066406 31.160156 35.070312 C 32.230469 35.070312 33.304688 35.039062 34.375 35 C 35.359375 34.015625 35.078125 33.039062 35.082031 31.675781 C 35.082031 30.816406 35.082031 30.816406 35.085938 29.9375 C 35.085938 29.3125 35.085938 28.691406 35.082031 28.046875 C 35.082031 27.410156 35.085938 26.773438 35.085938 26.121094 C 35.085938 24.773438 35.085938 23.425781 35.082031 22.078125 C 35.078125 20.007812 35.082031 17.9375 35.085938 15.867188 C 35.085938 14.5625 35.085938 13.257812 35.082031 11.953125 C 35.085938 11.328125 35.085938 10.707031 35.085938 10.0625 C 35.085938 9.488281 35.082031 8.917969 35.082031 8.324219 C 35.082031 7.816406 35.078125 7.308594 35.078125 6.789062 C 35.128906 5.617188 35.128906 5.617188 34.375 5 C 32.988281 4.945312 31.601562 4.933594 30.210938 4.9375 C 29.796875 4.941406 29.382812 4.941406 28.953125 4.941406 C 27.621094 4.945312 26.292969 4.953125 24.960938 4.960938 C 24.058594 4.964844 23.160156 4.96875 22.257812 4.96875 C 20.046875 4.976562 17.835938 4.988281 15.625 5 Z M 6.875 8.125 C 6.460938 8.539062 6.050781 8.949219 5.625 9.375 C 5.824219 10.691406 5.824219 10.691406 6.25 11.875 C 7.75 12.300781 7.75 12.300781 9.375 12.5 C 9.789062 12.085938 10.199219 11.675781 10.625 11.25 C 10.425781 9.933594 10.425781 9.933594 10 8.75 C 8.5 8.324219 8.5 8.324219 6.875 8.125 Z M 6.875 8.125 "/>
<path style=" stroke:none;fill-rule:nonzero;fill:rgb(0%,77.254903%,35.294119%);fill-opacity:1;" d="M 25.898438 26.757812 C 26.390625 26.75 26.886719 26.742188 27.394531 26.734375 C 28.679688 26.730469 29.964844 26.796875 31.25 26.875 C 31.664062 27.289062 32.074219 27.699219 32.5 28.125 C 32.34375 29.726562 32.34375 29.726562 31.875 31.25 C 29.980469 32.199219 28.015625 31.992188 25.9375 31.992188 C 25.507812 32 25.074219 32.007812 24.632812 32.015625 C 23.503906 32.019531 22.375 31.949219 21.25 31.875 C 20 30.625 20 30.625 19.882812 29.023438 C 20.140625 25.691406 23.246094 26.761719 25.898438 26.757812 Z M 25.898438 26.757812 "/>
</g>
</svg>
